<svg width="600" height="600" viewBox="0 0 600 600" fill="none" xmlns="http://www.w3.org/2000/svg">
<rect width="600" height="600" rx="300" fill="#F5F5F2"/>
<path d="M378.066 494.03C378.068 493.598 378.241 493.184 378.545 492.877C378.85 492.57 379.263 492.396 379.696 492.39C389.369 492.257 395.536 490.944 398.196 488.45C406.356 480.81 400.036 461.01 396.786 452.59C386.419 425.684 375.949 398.247 365.376 370.28C361.386 359.74 352.176 357.61 343.876 365.36C336.109 372.594 329.136 380.717 322.956 389.73C317.526 397.67 311.456 406.79 304.416 417.79C293.002 435.637 280.292 453.147 266.286 470.32C257.972 480.514 248.622 489.487 238.236 497.24C223.116 508.53 202.906 515.2 184.506 511.61C155.896 506.01 152.356 473.01 154.526 449.82C156.526 428.51 161.176 410.23 168.456 387.74C183.526 341.17 201.646 287.99 216.726 241.74C224.652 217.427 239.332 172.494 260.766 106.94C260.868 106.627 260.872 106.29 260.777 105.975C260.682 105.66 260.493 105.383 260.236 105.18C254.436 100.65 246.986 98.2604 239.956 96.6304C235.722 95.6504 231.376 95.177 226.916 95.2104C226.742 95.2117 226.57 95.1785 226.409 95.1126C226.248 95.0467 226.102 94.9496 225.979 94.8267C225.857 94.7039 225.759 94.5578 225.693 94.3971C225.628 94.2363 225.595 94.0641 225.596 93.8904L225.636 88.2304C225.636 88.0663 225.669 87.9039 225.732 87.7526C225.796 87.6014 225.889 87.4645 226.007 87.3498C226.124 87.2352 226.263 87.1453 226.416 87.0852C226.569 87.0252 226.732 86.9964 226.896 87.0004L305.846 88.9904C306.139 88.9987 306.424 89.093 306.666 89.2617C306.908 89.4305 307.095 89.6663 307.206 89.9404C310.492 98.207 314.856 109.934 320.296 125.12C321.702 129.034 342.629 186.337 383.076 297.03C399.782 342.737 409.692 369.987 412.806 378.78C418.672 395.32 426.502 416.674 436.296 442.84C440.722 454.647 446.309 465.39 453.056 475.07C455.162 478.09 457.952 481.134 461.426 484.2C468.056 490.06 474.826 492.61 483.126 493.59C483.317 493.613 483.493 493.704 483.619 493.847C483.745 493.99 483.812 494.173 483.806 494.36L483.686 499.18C483.681 499.359 483.605 499.528 483.476 499.652C483.347 499.775 483.174 499.843 482.996 499.84L380.126 499.18C379.851 499.179 379.58 499.124 379.327 499.017C379.074 498.911 378.844 498.756 378.651 498.561C378.458 498.366 378.305 498.135 378.201 497.881C378.097 497.627 378.044 497.355 378.046 497.08L378.066 494.03ZM269.356 113.26C262.476 134.287 258.492 146.47 257.406 149.81C252.359 165.244 242.536 194.94 227.936 238.9C220.589 261.014 214.219 280.297 208.826 296.75C204.219 310.824 197.782 330.094 189.516 354.56C184.016 370.84 179.526 384.417 176.046 395.29C173.612 402.877 171.939 408.624 171.026 412.53C168.286 424.21 167.192 436.13 167.746 448.29C168.446 463.57 175.906 478.81 190.046 484.57C211.536 493.32 233.096 482.87 249.826 469.79C253.846 466.65 258.979 461.64 265.226 454.76C271.319 448.04 277.956 440.254 285.136 431.4C290.576 424.694 295.949 417.317 301.256 409.27C307.682 399.53 313.049 391.644 317.356 385.61C320.589 381.084 323.256 377.574 325.356 375.08C330.746 368.72 336.806 361.51 343.216 357.02C347.402 354.094 352.399 352.63 358.206 352.63C358.261 352.63 358.315 352.616 358.364 352.591C358.413 352.566 358.456 352.53 358.488 352.486C358.52 352.442 358.541 352.392 358.549 352.338C358.558 352.285 358.553 352.231 358.536 352.18C356.696 346.514 353.026 336.33 347.526 321.63C345.126 315.197 336.856 292.494 322.716 253.52C318.686 242.42 314.736 232.34 309.856 218.98C298.276 187.247 286.586 155.697 274.786 124.33C273.366 120.55 271.732 116.847 269.886 113.22C269.859 113.17 269.819 113.129 269.77 113.102C269.72 113.075 269.664 113.063 269.608 113.067C269.551 113.071 269.498 113.092 269.453 113.126C269.408 113.161 269.374 113.207 269.356 113.26Z" fill="#1C1C1E"/>
</svg>
