<svg width="876" height="633" viewBox="0 0 876 633" fill="none" xmlns="http://www.w3.org/2000/svg">
<path d="M224.066 407.03C224.068 406.598 224.241 406.184 224.545 405.877C224.85 405.57 225.263 405.396 225.696 405.39C235.369 405.257 241.536 403.944 244.196 401.45C252.356 393.81 246.036 374.01 242.786 365.59C232.419 338.684 221.949 311.247 211.376 283.28C207.386 272.74 198.176 270.61 189.876 278.36C182.109 285.594 175.136 293.717 168.956 302.73C163.526 310.67 157.456 319.79 150.416 330.79C139.002 348.637 126.292 366.147 112.286 383.32C103.972 393.514 94.6224 402.487 84.2358 410.24C69.1158 421.53 48.9058 428.2 30.5058 424.61C1.89578 419.01 -1.64423 386.01 0.525776 362.82C2.52577 341.51 7.17577 323.23 14.4558 300.74C29.5258 254.17 47.6458 200.99 62.7258 154.74C70.6525 130.427 85.3324 85.4937 106.766 19.9404C106.868 19.6269 106.872 19.29 106.777 18.9753C106.682 18.6605 106.493 18.383 106.236 18.1804C100.436 13.6504 92.9858 11.2604 85.9558 9.63037C81.7224 8.65037 77.3758 8.17703 72.9158 8.21037C72.742 8.2117 72.5698 8.17847 72.4091 8.1126C72.2483 8.04674 72.1023 7.94955 71.9794 7.82671C71.8566 7.70387 71.7594 7.55783 71.6935 7.39708C71.6277 7.23633 71.5945 7.06408 71.5958 6.89037L71.6358 1.23037C71.6357 1.06629 71.6685 0.903852 71.7322 0.752632C71.7959 0.601412 71.8892 0.464463 72.0066 0.349846C72.124 0.235229 72.2631 0.145262 72.4158 0.0852429C72.5686 0.0252239 72.7317 -0.00363608 72.8958 0.000365913L151.846 1.99037C152.139 1.9987 152.424 2.093 152.666 2.26173C152.908 2.43047 153.095 2.66631 153.206 2.94037C156.492 11.207 160.856 22.9337 166.296 38.1204C167.702 42.0337 188.629 99.337 229.076 210.03C245.782 255.737 255.692 282.987 258.806 291.78C264.672 308.32 272.502 329.674 282.296 355.84C286.722 367.647 292.309 378.39 299.056 388.07C301.162 391.09 303.952 394.134 307.426 397.2C314.056 403.06 320.826 405.61 329.126 406.59C329.317 406.613 329.493 406.704 329.619 406.847C329.745 406.99 329.812 407.173 329.806 407.36L329.686 412.18C329.681 412.359 329.605 412.528 329.476 412.652C329.347 412.775 329.174 412.843 328.996 412.84L226.126 412.18C225.851 412.179 225.58 412.124 225.327 412.017C225.074 411.911 224.844 411.756 224.651 411.561C224.458 411.366 224.305 411.135 224.201 410.881C224.097 410.627 224.044 410.355 224.046 410.08L224.066 407.03ZM115.356 26.2604C108.476 47.287 104.492 59.4704 103.406 62.8104C98.3591 78.2437 88.5358 107.94 73.9358 151.9C66.5891 174.014 60.2191 193.297 54.8258 209.75C50.2191 223.824 43.7824 243.094 35.5158 267.56C30.0158 283.84 25.5258 297.417 22.0458 308.29C19.6124 315.877 17.9391 321.624 17.0258 325.53C14.2858 337.21 13.1924 349.13 13.7458 361.29C14.4458 376.57 21.9058 391.81 36.0458 397.57C57.5358 406.32 79.0958 395.87 95.8258 382.79C99.8458 379.65 104.979 374.64 111.226 367.76C117.319 361.04 123.956 353.254 131.136 344.4C136.576 337.694 141.949 330.317 147.256 322.27C153.682 312.53 159.049 304.644 163.356 298.61C166.589 294.084 169.256 290.574 171.356 288.08C176.746 281.72 182.806 274.51 189.216 270.02C193.402 267.094 198.399 265.63 204.206 265.63C204.261 265.63 204.315 265.616 204.364 265.591C204.413 265.566 204.456 265.53 204.488 265.486C204.52 265.442 204.541 265.392 204.549 265.338C204.558 265.285 204.553 265.231 204.536 265.18C202.696 259.514 199.026 249.33 193.526 234.63C191.126 228.197 182.856 205.494 168.716 166.52C164.686 155.42 160.736 145.34 155.856 131.98C144.276 100.247 132.586 68.697 120.786 37.3304C119.366 33.5504 117.732 29.847 115.886 26.2204C115.859 26.1705 115.819 26.1295 115.77 26.1022C115.72 26.075 115.664 26.0627 115.608 26.0669C115.551 26.0712 115.498 26.0918 115.453 26.1261C115.408 26.1605 115.374 26.2071 115.356 26.2604Z" fill="#F5F5F2"/>
<path d="M808.166 8.02531C808.24 8.0239 808.313 8.03716 808.381 8.06432C808.45 8.09149 808.512 8.132 808.565 8.18351C808.617 8.23502 808.659 8.29647 808.688 8.36429C808.716 8.4321 808.731 8.50491 808.731 8.57845L809.391 80.742C809.393 80.8929 809.364 81.0426 809.308 81.1825C809.251 81.3224 809.168 81.4498 809.062 81.5575C808.956 81.6652 808.83 81.751 808.691 81.81C808.552 81.869 808.402 81.9001 808.251 81.9015L806.973 81.9121C806.435 81.9186 805.913 81.7354 805.498 81.3948C805.082 81.0542 804.801 80.5781 804.703 80.0506C802.544 68.768 799.088 58.4958 794.335 49.2343C788.826 38.5119 780.451 30.7998 769.838 24.6514C749.103 12.6525 724.915 8.30188 701.068 10.5251C691.613 11.4044 683.547 13.3333 676.87 16.3118C662.197 22.8537 650.977 33.9378 646.171 49.4683C642.364 61.7792 642.332 74.2958 646.075 87.0181C651.35 104.963 666.886 117.196 682.464 126.078C690.065 130.411 697.797 134.39 705.661 138.013C717.78 143.602 729.934 148.803 742.124 153.618C751.852 157.458 766.855 164.309 774.591 167.862C794.666 177.106 813.526 188.062 829.882 202.827C851.672 222.506 865.769 250.195 869.126 279.639C871.992 304.796 867.89 331.368 855.625 353.685C838.875 384.161 809.296 402.446 775.411 409.276C737.009 417.02 696.103 412.765 660.173 398.5C649.929 394.437 642.51 391.401 637.914 389.395C635.598 388.38 633.207 387.898 630.742 387.948C626.757 388.033 625.404 391.777 623.965 395.298C623.703 395.951 622.573 399.961 620.577 407.329C620.044 409.293 619.142 410.315 617.871 410.393C616.038 410.51 613.64 410.542 611.669 409.925C611.415 409.846 611.19 409.692 611.023 409.482C610.856 409.271 610.754 409.014 610.731 408.744C610.341 403.78 610.17 398.333 610.22 392.405C610.454 364.719 610.053 335.024 609.016 303.317C608.945 301.048 609.112 298.825 609.517 296.648C609.868 294.786 610.838 294.01 612.724 294.297C613.119 294.359 613.484 294.542 613.768 294.821C614.053 295.099 614.243 295.459 614.312 295.85C615.882 304.963 618.016 314.479 620.716 324.4C623.181 333.428 627.311 343.058 633.108 353.291C636.695 359.61 641.796 366.131 648.409 372.853C660.631 385.288 676.593 394.107 692.48 399.16C721.846 408.51 758.672 409.233 787.931 397.266C819.546 384.342 838.587 356.078 840.1 322.209C840.37 316.125 840.385 310.359 840.143 304.913C839.088 281.404 829.871 260.055 815.156 242.536C798.821 223.091 776.104 210.039 751.117 198.827C737.876 192.884 723.708 186.931 708.612 180.967C694.856 175.531 678.969 168.447 667.408 162.437C653.172 155.044 637.977 145.353 627.674 132.652C613.598 115.313 609.772 90.5071 613.331 68.9346C616.986 46.7664 628.92 29.3957 647.972 18.1946C673.183 3.35553 703.54 1.2387 732.385 4.30225C751.809 6.37653 768.251 13.0568 789.253 21.322C793.543 23.0098 796.971 22.1233 799.535 18.6626C801.102 16.5564 801.943 11.5888 802.998 9.0784C803.125 8.77787 803.338 8.52103 803.611 8.33956C803.883 8.15809 804.204 8.05994 804.533 8.05722L808.166 8.02531Z" fill="#F5F5F2"/>
<path d="M429.088 205.72C429.102 205.777 429.294 206.08 429.664 206.629C460.224 251.421 477.736 277.087 482.201 283.628C507.94 321.337 520.984 340.67 521.332 341.626C521.346 341.668 524.763 346.996 531.582 357.609C538.286 368.051 545.734 377.962 553.925 387.341C556.577 390.38 560.211 393.864 564.825 397.794C574.339 405.914 582.444 407.391 594.347 408.022C594.796 408.046 595.218 408.245 595.526 408.575C595.834 408.906 596.004 409.344 596 409.798L595.989 411.37C595.988 411.602 595.941 411.83 595.851 412.043C595.76 412.256 595.629 412.448 595.464 412.608C595.299 412.769 595.104 412.894 594.89 412.978C594.676 413.061 594.448 413.1 594.219 413.093C570.428 412.451 547.156 412.087 524.404 412.002C521.535 411.991 517.877 409.177 515.872 406.406C512.907 402.298 510.464 398.158 506.795 392.797C491.985 371.108 482.088 356.525 477.103 349.05C473.79 344.086 466.161 332.863 454.216 315.382C443.714 300.025 433.176 284.648 422.604 269.249C414.534 257.487 406.577 246.05 398.735 234.938C394.547 229.018 391.109 224.935 388.421 222.688C377.457 213.573 365.139 209.85 350.762 208.095C340.502 206.84 329.581 206.205 317.998 206.191C317.126 206.191 316.285 205.862 315.643 205.27C315.001 204.677 314.604 203.864 314.532 202.992L314.522 202.853C314.489 202.447 314.541 202.039 314.673 201.654C314.805 201.269 315.014 200.915 315.288 200.615C315.563 200.315 315.895 200.075 316.266 199.909C316.637 199.744 317.038 199.657 317.444 199.654C335.539 199.525 360.944 199.44 393.658 199.397C398.223 199.397 404.533 198.687 412.589 197.268C428.086 194.54 443.433 188.57 455.41 178.492C471.188 165.225 480.075 147.804 482.073 126.229C484.953 95.2558 478.66 66.5405 455.581 45.1645C439.935 30.6677 417.858 22.28 396.996 19.6695C387.646 18.4997 376.59 17.5868 363.827 16.9306C336.837 15.5469 311.862 14.7017 288.903 14.395C287.617 14.3807 285.633 14.0954 282.952 13.5391C282.77 13.5008 282.602 13.4122 282.468 13.2835C282.334 13.1548 282.24 12.9913 282.195 12.8116C281.946 11.8273 281.935 10.8395 282.163 9.84806C282.203 9.676 282.297 9.52027 282.43 9.40172C282.563 9.28317 282.731 9.20746 282.91 9.18473C286.29 8.78888 290.695 8.15765 295.111 8.09346C312.033 7.84383 331.917 7.53714 354.762 7.17338C373.767 6.87382 392.25 7.41945 410.211 8.81028C435.594 10.7681 460.391 16.7059 482.564 28.8169C489.93 32.8396 496.575 37.6754 502.497 43.3243C521.979 61.9044 531.514 85.4308 531.102 113.904C530.547 152.9 508.118 183.702 471.067 195.545C461.489 198.598 453.942 200.577 448.424 201.483C442.302 202.482 436.163 203.43 430.005 204.329C429.85 204.353 429.702 204.408 429.57 204.493C429.438 204.578 429.325 204.689 429.239 204.82C429.152 204.951 429.094 205.099 429.068 205.254C429.042 205.409 429.049 205.568 429.088 205.72Z" fill="#F5F5F2"/>
<path d="M18.3838 601V511.4H52.9438C62.5011 511.4 70.8211 513.363 77.9038 517.288C84.9865 521.128 90.4905 526.419 94.4158 533.16C98.4265 539.816 100.432 547.496 100.432 556.2C100.432 564.904 98.4265 572.627 94.4158 579.368C90.4905 586.024 84.9865 591.315 77.9038 595.24C70.8211 599.08 62.5011 601 52.9438 601H18.3838ZM22.7358 597.032H52.6878C61.4771 597.032 69.1145 595.283 75.5998 591.784C82.1705 588.285 87.2051 583.464 90.7038 577.32C94.2878 571.176 96.0798 564.136 96.0798 556.2C96.0798 548.264 94.2878 541.224 90.7038 535.08C87.2051 528.936 82.1705 524.115 75.5998 520.616C69.1145 517.117 61.4771 515.368 52.6878 515.368H22.7358V597.032ZM200.678 553.512H250.086V557.48H200.678V553.512ZM201.446 597.032H257.638V601H197.094V511.4H255.846V515.368H201.446V597.032ZM378.21 601.512C371.639 601.512 365.41 600.36 359.522 598.056C353.719 595.667 349.282 592.68 346.21 589.096L348.514 586.024C351.415 589.267 355.511 592.04 360.802 594.344C366.178 596.563 371.938 597.672 378.082 597.672C384.311 597.672 389.431 596.819 393.442 595.112C397.453 593.405 400.397 591.144 402.274 588.328C404.237 585.427 405.218 582.227 405.218 578.728C405.218 574.632 404.194 571.347 402.146 568.872C400.098 566.397 397.367 564.435 393.954 562.984C390.626 561.533 386.957 560.339 382.946 559.4C379.021 558.461 375.01 557.48 370.914 556.456C366.903 555.347 363.191 553.981 359.778 552.36C356.45 550.653 353.762 548.349 351.714 545.448C349.751 542.461 348.77 538.621 348.77 533.928C348.77 529.917 349.837 526.163 351.97 522.664C354.103 519.165 357.431 516.349 361.954 514.216C366.477 511.997 372.279 510.888 379.362 510.888C384.226 510.888 389.005 511.656 393.698 513.192C398.477 514.643 402.53 516.605 405.858 519.08L403.938 522.536C400.354 519.891 396.386 517.928 392.034 516.648C387.682 515.368 383.501 514.728 379.49 514.728C373.517 514.728 368.525 515.624 364.514 517.416C360.589 519.123 357.687 521.427 355.81 524.328C353.933 527.229 352.994 530.429 352.994 533.928C352.994 538.109 354.018 541.437 356.066 543.912C358.114 546.387 360.802 548.349 364.13 549.8C367.543 551.251 371.255 552.445 375.266 553.384C379.277 554.323 383.287 555.347 387.298 556.456C391.309 557.48 394.978 558.845 398.306 560.552C401.719 562.259 404.407 564.563 406.37 567.464C408.418 570.28 409.442 573.992 409.442 578.6C409.442 582.611 408.333 586.365 406.114 589.864C403.981 593.363 400.567 596.179 395.874 598.312C391.266 600.445 385.378 601.512 378.21 601.512ZM505.764 601V511.4H510.116V601H505.764ZM653.353 601.512C646.697 601.512 640.51 600.403 634.793 598.184C629.161 595.88 624.212 592.68 619.945 588.584C615.764 584.488 612.521 579.709 610.217 574.248C607.913 568.701 606.761 562.685 606.761 556.2C606.761 549.715 607.913 543.741 610.217 538.28C612.521 532.733 615.764 527.912 619.945 523.816C624.212 519.72 629.161 516.563 634.793 514.344C640.51 512.04 646.697 510.888 653.353 510.888C659.582 510.888 665.428 511.869 670.889 513.832C676.35 515.795 681.001 518.739 684.841 522.664L682.281 525.608C678.185 521.683 673.748 518.909 668.969 517.288C664.19 515.667 659.028 514.856 653.481 514.856C647.422 514.856 641.79 515.923 636.585 518.056C631.465 520.104 626.985 523.005 623.145 526.76C619.305 530.515 616.318 534.909 614.185 539.944C612.137 544.893 611.113 550.312 611.113 556.2C611.113 562.088 612.137 567.549 614.185 572.584C616.318 577.533 619.305 581.885 623.145 585.64C626.985 589.395 631.465 592.339 636.585 594.472C641.79 596.52 647.422 597.544 653.481 597.544C658.942 597.544 664.105 596.733 668.969 595.112C673.918 593.405 678.313 590.632 682.153 586.792L684.713 589.992C680.788 593.832 676.094 596.733 670.633 598.696C665.172 600.573 659.412 601.512 653.353 601.512ZM680.617 589.736V556.84H684.713V589.992L680.617 589.736ZM787.934 601V511.4H791.518L857.31 595.88H855.134V511.4H859.486V601H855.902L790.11 516.52H792.286V601H787.934Z" fill="#F5F5F2"/>
</svg>
